<svg xmlns="http://www.w3.org/2000/svg" xmlns:xlink="http://www.w3.org/1999/xlink" xmlns:fi="http://pattern.flaticon.com/" x="0" y="0" width="1512" height="756" viewBox="0 0 1260 630"><rect x="0px" y="0px" width="100%" height="100%" opacity="1" fill="#c9ffce"/><defs><g transform="matrix(0.1171875 0 0 0.1171875 248.99999914169302 45.00000044283615)" id="L1_19"><path d="m256.355 195.756a6 6 0 0 1 -6-6v-98.531a6 6 0 1 1 12 0v98.531a6 6 0 0 1 -6 6z" fill="#7a4d47"/><path d="m365.48 143.89c-52.87-5.81-79.35 15.07-109.12 44.87v264.11a45.252 45.252 0 0 1 23.26 6.51s9.89 6.71 13.57 8.18c48.71 19.5 108.94-50.1 128.91-140.12s-4.45-177.8-56.62-183.55z" fill="#f9db99"/><path d="m372.49 43.14q-30.03 75.27-111.03 77.7 29.85-75.525 111.03-77.7z" fill="#9cad4f"/><path d="m146.42 143.98c-52.08 6.54-76.52 93.59-56.49 183.58s80.21 159.34 129.02 140.03c3.84-1.52 14.21-8.41 14.21-8.41a45.244 45.244 0 0 1 23.2-6.31v-264.11c-34.39-29.78-69.22-49.9-109.94-44.78z" fill="#ec5c5e"/><path d="m303.11 227.67c28.68 3.15 42.11 51.42 31.13 100.9s-44.09 87.76-70.87 77.04c-1.91-.76-5.1-3.04-7.01-4.28v-160.96c12.11-9.53 25.5-15.04 46.75-12.7z" fill="#ffe8b6"/><path d="m305.02 324.37a12.773 12.773 0 1 1 -25.36-2.16l3.28-19.11 16.26 10.56a12.757 12.757 0 0 1 5.82 10.71z" fill="#665250"/><path d="m119.93 327.56c-19.723-88.609 3.671-174.367 54.113-183.221a99.82 99.82 0 0 0 -27.623-.359c-52.08 6.54-76.52 93.59-56.49 183.58 19.693 88.532 78.257 157.07 126.623 140.9-40.337-12.198-80.888-70.16-96.623-140.9z" fill="#bc4b51"/><g fill="#f4f8fc"><path d="m138.337 389.021a6 6 0 0 1 -5.259-3.1c-.922-1.672-1.846-3.395-2.747-5.122a6 6 0 1 1 10.638-5.551q1.29 2.471 2.617 4.878a6 6 0 0 1 -5.249 8.9z"/><path d="m187.864 446.971a5.979 5.979 0 0 1 -3.3-1c-2.564-1.7-5.149-3.577-7.684-5.59-11.478-9.115-22.39-21.2-32.432-35.932a6 6 0 0 1 9.914-6.761c9.362 13.729 19.449 24.932 29.981 33.3 2.264 1.8 4.565 3.472 6.841 4.977a6 6 0 0 1 -3.316 11z"/></g></g><g transform="matrix(0.1171875 0 0 0.1171875 214 173.000001001358)" id="L1_20"><path d="m417.05 222.83c21.28 24.5-4.98 82.39-58.78 131.18-1.66 1.51-3.34 3-5.05 4.49-27.81 24.17-57.27 41.27-82.72 49.55a241.636 241.636 0 0 0 42.12-83.59l.01-.01 62.42-65.13-57 41.04a244.448 244.448 0 0 0 3.57-41.63 243.471 243.471 0 0 0 -1.27-24.89c41.99-23.84 80.65-29.49 96.7-11.01z" fill="#5fcda4"/><path d="m410.88 404.37-173.44 39.41 12.85-12.85a247.1 247.1 0 0 0 18.54-20.76z" fill="#367f61"/><path d="m375.05 259.32-62.42 65.13a241.334 241.334 0 0 0 5.42-24.09z" fill="#4ca987"/><path d="m270.5 408.05c25.45-8.28 54.91-25.38 82.72-49.55 1.71-1.49 3.39-2.98 5.05-4.49l.01.01c57.59-1.03 102.49 16.17 106.09 43.25 4.27 32.15-51.3 66.06-124.13 75.74-48.81 6.48-92.98.44-118.09-13.94l15.29-15.29 173.44-39.41-142.05 5.8c.56-.7 1.12-1.41 1.67-2.12z" fill="#4ca987"/><path d="m118.73 86.53h-.01c-95.1 95.11-95.1 249.3 0 344.4l65.79 65.78v-437.43a92.7 92.7 0 0 0 -65.78 27.25z" fill="#ad7455"/><path d="m320.35 233.84a242.5 242.5 0 0 0 -70.06-147.31 92.722 92.722 0 0 0 -65.78-27.25v437.43l37.64-37.64 15.29-15.29 12.85-12.85a247.1 247.1 0 0 0 18.54-20.76c.56-.7 1.12-1.41 1.67-2.12a241.636 241.636 0 0 0 42.12-83.59l.01-.01a241.334 241.334 0 0 0 5.42-24.09 244.448 244.448 0 0 0 3.57-41.63 243.471 243.471 0 0 0 -1.27-24.89z" fill="#dda079"/><path d="m225 152.72a149.911 149.911 0 0 1 0 212.03l-40.49 40.5v-269.31a57.06 57.06 0 0 1 40.49 16.78z" fill="#f9dabf"/><path d="m148.72 430.93c-95.1-95.1-95.1-249.29 0-344.4h.01a92.568 92.568 0 0 1 35.78-22.286v-4.964a92.7 92.7 0 0 0 -65.78 27.25h-.01c-95.1 95.11-95.1 249.3 0 344.4l65.79 65.78v-30z" fill="#825440"/><path d="m121.612 400.062a5.986 5.986 0 0 1 -4.515-2.045q-1.29-1.473-2.553-2.959a6 6 0 0 1 9.147-7.768q1.2 1.416 2.432 2.818a6 6 0 0 1 -4.511 9.954z" fill="#f4f8fc"/><path d="m159.369 438.642a5.982 5.982 0 0 1 -4.248-1.763l-25.647-25.712a6 6 0 0 1 8.5-8.475l25.643 25.708a6 6 0 0 1 -4.248 10.238z" fill="#f4f8fc"/><path d="m184.505 65.285a6 6 0 0 1 -6-6v-25.5a12.514 12.514 0 0 0 -12.5-12.5 6 6 0 0 1 0-12 24.527 24.527 0 0 1 24.5 24.5v25.5a6 6 0 0 1 -6 6z" fill="#7f3d32"/></g><g transform="matrix(0.1171875 0 0 0.1171875 130 248)" id="L1_21"><path d="m218.5 411.1h75v85.9h-75z" fill="#68534a"/><path d="m218.5 411.1h30v85.9h-30z" fill="#493832"/><path d="m391.25 164.27 35.25-10.27a200.134 200.134 0 0 1 -14.75 76.05c-4.35-25.48-16.42-50.39-37.44-71.41l-118.31-118.31v-25.29q50.16-1.425 100.31 55.95l12.19-8.99c26.49 32.52 33.67 65.4 22.75 102.27z" fill="#89ab3d"/><path d="m293.5 411.1a180.986 180.986 0 0 1 -37.5 3.9v-27.02q4.26 0 8.52-.27l23.95-1.53c80.89-5.17 130.82-75.98 124.62-145.74l23.41-5.94a180.564 180.564 0 0 1 -143 176.6z" fill="#b5cc83"/><path d="m192.5 240c-14.34-35.43-34.78-60.94-68.1-75.74a158.429 158.429 0 0 0 -32.9-10.26c0 33.05 7.13 64.31 20.29 91.32 34.62 14.23 59.67 37.98 73.71 72.68 10.77-36.47 35.3-71.02 70.5-89.23v-77.77c-33.96 22.92-49.72 54.29-63.5 89z" fill="#a4cc5e"/><path d="m207.5 150c-10.21-30.5-25.27-55.91-48.16-77.63q-5.595-5.34-11.84-10.37c-20.78 31.73-30.43 64.19-23.1 102.26 33.32 14.8 53.76 40.31 68.1 75.74 13.78-34.71 29.54-66.08 63.5-89v-88.1c-24.5 19.34-39.24 52.74-48.5 87.1z" fill="#89ab3d"/><path d="m159.35 72.36-.01.01c22.89 21.72 37.95 47.13 48.16 77.63 9.26-34.36 24-67.76 48.5-87.1v-47.86q-48.315 1.35-96.65 57.32z" fill="#a4cc5e"/><path d="m413.09 240.44-6.82 1.73q2.94-5.94 5.48-12.12c-4.35-25.48-16.42-50.39-37.44-71.41l-118.31-118.31v347.65q4.26 0 8.52-.27l23.95-1.53c80.89-5.17 130.82-75.98 124.62-145.74z" fill="#caeabb"/><path d="m356.73 172.69c69.12 69.13 24.47 187.48-73.09 193.72l-20.39 1.31q-3.615.225-7.25.23v-20.23q2.985 0 5.97-.19l16.8-1.07c80.36-5.14 117.14-102.64 60.2-159.58l-82.97-82.97v-31.94z" fill="#b5cc83"/><path d="m320.27 201.82c44.11 44.11 15.62 119.64-46.63 123.62l-13.01.83c-1.54.1-3.09.15-4.63.15v-28.87c.82-.01 1.64-.04 2.46-.1l8.37-.53c40.03-2.56 58.35-51.12 29.99-79.48l-40.82-40.82v-39.07z" fill="#b5cc83"/><path d="m120.512 162.608a162.384 162.384 0 0 0 -29.012-8.608c0 33.05 7.13 64.31 20.29 91.32a147.506 147.506 0 0 1 28.904 15.68c-12.306-26.613-19.933-66.525-20.182-98.392z" fill="#85a04a"/><path d="m185.5 318c-14.04-34.7-39.09-58.45-73.71-72.68a200.763 200.763 0 0 0 -36.29-10.82 180.3 180.3 0 0 0 180.5 180.5v-186.23c-35.2 18.21-59.73 52.76-70.5 89.23z" fill="#89ab3d"/><path d="m248.5 411.1a180.581 180.581 0 0 1 -142.8-168.134 207.241 207.241 0 0 0 -30.2-8.466 180.3 180.3 0 0 0 180.5 180.5v-2.494c-2.516-.421-5.02-.881-7.5-1.406z" fill="#5e7228"/><path d="m168.271 81.482c-2.84-3.106-5.806-6.147-8.931-9.112q-5.595-5.34-11.84-10.37c-20.78 31.73-30.43 64.19-23.1 102.26a120.677 120.677 0 0 1 22.449 12.93c-6.009-35.371 2.732-65.938 21.422-95.708z" fill="#5e7228"/><path d="m256 35v-19.96q-48.315 1.35-96.65 57.32l-.01.01a176.746 176.746 0 0 1 16.279 17.684q40.181-46.417 80.381-55.054z" fill="#85a04a"/><g fill="#f4f8fc"><path d="m225.51 391.845a6 6 0 0 1 -1.679-.241 185.487 185.487 0 0 1 -53.4-25.339 6 6 0 0 1 6.8-9.887 173.484 173.484 0 0 0 49.953 23.7 6 6 0 0 1 -1.673 11.764z"/><path d="m157.617 354.763a5.977 5.977 0 0 1 -3.933-1.472c-1.444-1.255-2.882-2.546-4.277-3.835a6 6 0 0 1 8.151-8.809c1.3 1.207 2.648 2.414 4 3.587a6 6 0 0 1 -3.94 10.529z"/></g></g><g transform="matrix(0.1171875 0 0 0.1171875 -9 120)" id="L1_22"><path d="m369.62 342.22c-14.66 3-23.58-15.6-12.06-25.16l105.24-87.26-72.98 16.81c-13.01 3-22.73-11.81-14.8-22.55l58.49-79.23-49.01 18.78a14.378 14.378 0 0 1 -19.07-17.03l26.15-101.09-63.18 82.56a14.382 14.382 0 0 1 -25.22-4.69l-14.77-50.29-21.2 77.27 7.7 304.16c71.84-30.21 137.12-76.3 199.02-133.59z" fill="#4ca987"/><path d="m190.09 24.41v90.76a33.655 33.655 0 0 1 -3.62-.22l-2.37-.29a31.849 31.849 0 0 0 -10.72.55v-.01l-6-90.79z" fill="#739937"/><path d="m340.54 288.7-.51-1.59a31.714 31.714 0 0 1 -1.47-12.12l.1-1.44a31.911 31.911 0 0 0 -4.38-18.55l-.52-.89a32.089 32.089 0 0 1 -4.21-12.3l-.17-1.38a31.946 31.946 0 0 0 -7.47-16.85l-.73-.85a32.036 32.036 0 0 1 -6.44-11.89l-.37-1.27a32.009 32.009 0 0 0 -9.74-15.21l-.91-.79a32.048 32.048 0 0 1 -8.21-11.04l-.51-1.14a32.067 32.067 0 0 0 -11.68-13.66l-1.07-.69a31.877 31.877 0 0 1 -9.6-9.78l-.61-.96a31.276 31.276 0 0 0 -4.83-5.96 31.6 31.6 0 0 0 -8.85-6.07l-1.29-.6a31.975 31.975 0 0 1 -10.57-7.87l-.59-.67a31.947 31.947 0 0 0 -16.38-9.9l-1.74-.43a31.815 31.815 0 0 1 -10.45-4.66 31.909 31.909 0 0 0 -8-3.96l-19.54 67.21.29 300.95a31.38 31.38 0 0 1 5.39.46l2.49.43a31.942 31.942 0 0 0 19.5-2.84l2.22-1.09a31.887 31.887 0 0 1 10.41-3.07l2.63-.31a32.006 32.006 0 0 0 17.68-7.99l1.78-1.61a31.916 31.916 0 0 1 9.63-5.97l2.51-1a32 32 0 0 0 14.73-11.81l1.35-2.01a31.957 31.957 0 0 1 8.37-8.43l2.22-1.52a32.045 32.045 0 0 0 11.52-14.35l.92-2.29a32.092 32.092 0 0 1 6.73-10.31l1.86-1.9a32.086 32.086 0 0 0 8.43-15.97l.5-2.46a31.988 31.988 0 0 1 4.88-11.62l1.48-2.18a32.036 32.036 0 0 0 5.5-16.96l.08-2.54a31.91 31.91 0 0 1 2.94-12.45l1.1-2.37a31.96 31.96 0 0 0 2.7-17.48l-.32-2.54a31.975 31.975 0 0 1 .98-12.87l.55-1.92a31.936 31.936 0 0 0 -.31-18.67z" fill="#fcef78"/><path d="m190.09 24.41v147.06c5.88 0 11.51 4.35 16.71 11.92l6-158.98z" fill="#b1c98d"/><path d="m186.47 114.95-2.37-.29a32.161 32.161 0 0 0 -21.25 4.97l-.28.19a31.992 31.992 0 0 1 -10.53 4.43l-1.87.41a32.023 32.023 0 0 0 -16.56 9.53l-.75.81a31.774 31.774 0 0 1 -10.56 7.55l-1.44.64a32.047 32.047 0 0 0 -13.91 11.88l-.72 1.11a31.905 31.905 0 0 1 -9.51 9.5l-1.21.78a31.979 31.979 0 0 0 -11.8 13.71l-.59 1.3a32.165 32.165 0 0 1 -8 10.84l-1.04.9a32.018 32.018 0 0 0 -9.66 15.4l-.4 1.43a31.878 31.878 0 0 1 -6.14 11.76l-.84 1.02a32.065 32.065 0 0 0 -7.14 17.03l-.16 1.51a31.789 31.789 0 0 1 -3.9 12.29l-.62 1.12a31.95 31.95 0 0 0 -3.95 18.46l.13 1.5a31.871 31.871 0 0 1 -1.33 12.39l-.53 1.71a31.906 31.906 0 0 0 -.22 18.39l.59 2.07a31.978 31.978 0 0 1 .99 12.87l-.32 2.54a32.052 32.052 0 0 0 2.7 17.48l1.1 2.37a32.1 32.1 0 0 1 2.95 12.45l.08 2.54a31.864 31.864 0 0 0 5.5 16.96l1.48 2.18a32.015 32.015 0 0 1 4.88 11.61l.49 2.46a32 32 0 0 0 8.43 15.97l1.86 1.91a32.049 32.049 0 0 1 6.73 10.3l.92 2.29a31.978 31.978 0 0 0 11.52 14.35l2.22 1.52a31.956 31.956 0 0 1 8.36 8.44l1.36 2a31.99 31.99 0 0 0 14.72 11.82l2.51 1a31.916 31.916 0 0 1 9.63 5.97l1.79 1.6a31.919 31.919 0 0 0 17.68 8l2.62.31a31.887 31.887 0 0 1 10.41 3.07l2.22 1.09a31.942 31.942 0 0 0 19.5 2.84l2.49-.43a32.239 32.239 0 0 1 5.36-.46v-369.17a33.655 33.655 0 0 1 -3.62-.22z" fill="#a0b559"/><path d="m206.8 183.39c7.91 11.52 14.83 30.51 20.11 53a415.3 415.3 0 0 1 8.02 46.93 435.98 435.98 0 0 1 2.86 48.82c0 73.29-21.35 96.51-47.7 96.51v-257.18c5.88 0 11.51 4.35 16.71 11.92z" fill="#e8b577"/><path d="m180.11 478.23-2.62-.31a31.919 31.919 0 0 1 -17.68-8l-1.79-1.6a31.916 31.916 0 0 0 -9.63-5.97l-2.51-1a31.99 31.99 0 0 1 -14.72-11.82l-1.36-2a31.956 31.956 0 0 0 -8.36-8.44l-2.22-1.52a31.978 31.978 0 0 1 -11.52-14.35l-.92-2.29a32.049 32.049 0 0 0 -6.73-10.3l-1.86-1.91a32 32 0 0 1 -8.43-15.97l-.49-2.46a32.015 32.015 0 0 0 -4.88-11.61l-1.48-2.18a31.864 31.864 0 0 1 -5.5-16.96l-.08-2.54a32.1 32.1 0 0 0 -2.95-12.45l-1.1-2.37a32.052 32.052 0 0 1 -2.7-17.48l.32-2.54a31.978 31.978 0 0 0 -.99-12.87l-.59-2.07a31.906 31.906 0 0 1 .22-18.39l.53-1.71a31.871 31.871 0 0 0 1.33-12.39l-.13-1.5a31.95 31.95 0 0 1 3.95-18.46l.62-1.12a31.789 31.789 0 0 0 3.9-12.29l.16-1.51a32.065 32.065 0 0 1 7.14-17.03l.84-1.02a31.878 31.878 0 0 0 6.14-11.76l.4-1.43a32.018 32.018 0 0 1 9.66-15.4l1.04-.9a32.165 32.165 0 0 0 8-10.84l.59-1.3a31.979 31.979 0 0 1 11.8-13.71l1.21-.78a31.905 31.905 0 0 0 9.51-9.5l.72-1.11a32.047 32.047 0 0 1 13.91-11.88l1.44-.64a31.774 31.774 0 0 0 10.56-7.55l.75-.81a32.023 32.023 0 0 1 16.56-9.53l1.87-.41a31.866 31.866 0 0 0 8.05-2.969v-6.111a33.655 33.655 0 0 1 -3.62-.22l-2.37-.29a32.161 32.161 0 0 0 -21.25 4.97l-.28.19a31.992 31.992 0 0 1 -10.53 4.43l-1.87.41a32.023 32.023 0 0 0 -16.56 9.53l-.75.81a31.774 31.774 0 0 1 -10.56 7.55l-1.44.64a32.047 32.047 0 0 0 -13.91 11.88l-.72 1.11a31.905 31.905 0 0 1 -9.51 9.5l-1.21.78a31.979 31.979 0 0 0 -11.8 13.71l-.59 1.3a32.165 32.165 0 0 1 -8 10.84l-1.04.9a32.018 32.018 0 0 0 -9.66 15.4l-.4 1.43a31.878 31.878 0 0 1 -6.14 11.76l-.84 1.02a32.065 32.065 0 0 0 -7.14 17.03l-.16 1.51a31.789 31.789 0 0 1 -3.9 12.29l-.62 1.12a31.95 31.95 0 0 0 -3.95 18.46l.13 1.5a31.871 31.871 0 0 1 -1.33 12.39l-.53 1.71a31.906 31.906 0 0 0 -.22 18.39l.59 2.07a31.978 31.978 0 0 1 .99 12.87l-.32 2.54a32.052 32.052 0 0 0 2.7 17.48l1.1 2.37a32.1 32.1 0 0 1 2.95 12.45l.08 2.54a31.864 31.864 0 0 0 5.5 16.96l1.48 2.18a32.015 32.015 0 0 1 4.88 11.61l.49 2.46a32 32 0 0 0 8.43 15.97l1.86 1.91a32.049 32.049 0 0 1 6.73 10.3l.92 2.29a31.978 31.978 0 0 0 11.52 14.35l2.22 1.52a31.956 31.956 0 0 1 8.36 8.44l1.36 2a31.99 31.99 0 0 0 14.72 11.82l2.51 1a31.916 31.916 0 0 1 9.63 5.97l1.79 1.6a31.919 31.919 0 0 0 17.68 8l2.62.31a31.887 31.887 0 0 1 10.41 3.07l2.22 1.09a31.942 31.942 0 0 0 19.5 2.84l2.49-.43a32.239 32.239 0 0 1 5.36-.46v-3.24a31.867 31.867 0 0 0 -9.98-2.87z" fill="#7a8742"/><path d="m307.55 289.318h-72.624a6 6 0 1 1 0-12h72.624a6 6 0 0 1 0 12z" fill="#d1c361"/><path d="m226.91 242.4a6 6 0 0 1 -1.833-11.715l57.938-18.6a6 6 0 1 1 3.668 11.426l-57.938 18.6a5.992 5.992 0 0 1 -1.835.289z" fill="#d1c361"/><path d="m213.078 200.482a6 6 0 0 1 -4.1-10.382l30.322-28.349a6 6 0 0 1 8.2 8.766l-30.318 28.348a5.983 5.983 0 0 1 -4.104 1.617z" fill="#d1c361"/><path d="m264.759 426.481a5.979 5.979 0 0 1 -4.1-1.617l-33.349-31.183a6 6 0 0 1 8.2-8.766l33.348 31.185a6 6 0 0 1 -4.1 10.382z" fill="#d1c361"/><path d="m213.944 464.161a6 6 0 0 1 -5.546-3.707l-12.84-31.022a6 6 0 1 1 11.088-4.59l12.84 31.022a6 6 0 0 1 -5.542 8.3z" fill="#d1c361"/><path d="m291.751 359.344a6.028 6.028 0 0 1 -1.818-.283l-53.972-17.142a6 6 0 0 1 3.633-11.438l53.972 17.142a6 6 0 0 1 -1.815 11.721z" fill="#d1c361"/><path d="m164.084 458.046a6 6 0 0 1 -6-6v-1a6 6 0 0 1 12 0v1a6 6 0 0 1 -6 6z" fill="#596031"/><path d="m104.707 493.591a5.972 5.972 0 0 1 -3.016-.818c-18.1-10.55-34.433-25.764-48.545-45.219a6 6 0 1 1 9.713-7.047c13.127 18.1 28.225 32.194 44.875 41.9a6 6 0 0 1 -3.027 11.185z" fill="#d4e1f4"/><path d="m46.026 431.415a6 6 0 0 1 -5.22-3.034c-1.024-1.8-2.031-3.632-2.994-5.447a6 6 0 1 1 10.6-5.623c.908 1.711 1.858 3.439 2.823 5.136a6 6 0 0 1 -5.21 8.968z" fill="#d4e1f4"/><g fill="#596031"><path d="m84.084 235.046a6 6 0 0 1 -6-6v-1a6 6 0 0 1 12 0v1a6 6 0 0 1 -6 6z"/><path d="m104.084 209.046a6 6 0 0 1 -6-6v-1a6 6 0 0 1 12 0v1a6 6 0 0 1 -6 6z"/><path d="m131.084 228.046a6 6 0 0 1 -6-6v-1a6 6 0 0 1 12 0v1a6 6 0 0 1 -6 6z"/><path d="m162.084 237.046a6 6 0 0 1 -6-6v-1a6 6 0 0 1 12 0v1a6 6 0 0 1 -6 6z"/><path d="m107.084 258.046a6 6 0 0 1 -6-6v-1a6 6 0 0 1 12 0v1a6 6 0 0 1 -6 6z"/><path d="m136.084 269.046a6 6 0 0 1 -6-6v-1a6 6 0 0 1 12 0v1a6 6 0 0 1 -6 6z"/><path d="m72.084 266.046a6 6 0 0 1 -6-6v-1a6 6 0 0 1 12 0v1a6 6 0 0 1 -6 6z"/><path d="m61.084 299.046a6 6 0 0 1 -6-6v-1a6 6 0 0 1 12 0v1a6 6 0 0 1 -6 6z"/><path d="m159.084 293.046a6 6 0 0 1 -6-6v-1a6 6 0 0 1 12 0v1a6 6 0 0 1 -6 6z"/><path d="m95.084 296.046a6 6 0 0 1 -6-6v-1a6 6 0 0 1 12 0v1a6 6 0 0 1 -6 6z"/><path d="m68.084 331.046a6 6 0 0 1 -6-6v-1a6 6 0 0 1 12 0v1a6 6 0 0 1 -6 6z"/><path d="m124.084 311.046a6 6 0 0 1 -6-6v-1a6 6 0 0 1 12 0v1a6 6 0 0 1 -6 6z"/><path d="m101.084 347.046a6 6 0 0 1 -6-6v-1a6 6 0 0 1 12 0v1a6 6 0 0 1 -6 6z"/><path d="m155.084 331.046a6 6 0 0 1 -6-6v-1a6 6 0 0 1 12 0v1a6 6 0 0 1 -6 6z"/><path d="m89.084 385.046a6 6 0 0 1 -6-6v-1a6 6 0 0 1 12 0v1a6 6 0 0 1 -6 6z"/><path d="m128.084 372.046a6 6 0 0 1 -6-6v-1a6 6 0 0 1 12 0v1a6 6 0 0 1 -6 6z"/><path d="m164.084 395.046a6 6 0 0 1 -6-6v-1a6 6 0 0 1 12 0v1a6 6 0 0 1 -6 6z"/><path d="m124.084 408.046a6 6 0 0 1 -6-6v-1a6 6 0 0 1 12 0v1a6 6 0 0 1 -6 6z"/><path d="m124.084 445.046a6 6 0 0 1 -6-6v-1a6 6 0 0 1 12 0v1a6 6 0 0 1 -6 6z"/><path d="m155.084 428.046a6 6 0 0 1 -6-6v-1a6 6 0 0 1 12 0v1a6 6 0 0 1 -6 6z"/><path d="m97.084 421.046a6 6 0 0 1 -6-6v-1a6 6 0 0 1 12 0v1a6 6 0 0 1 -6 6z"/><path d="m68.084 364.046a6 6 0 0 1 -6-6v-1a6 6 0 0 1 12 0v1a6 6 0 0 1 -6 6z"/><path d="m159.084 361.046a6 6 0 0 1 -6-6v-1a6 6 0 0 1 12 0v1a6 6 0 0 1 -6 6z"/><path d="m162.084 196.046a6 6 0 0 1 -6-6v-1a6 6 0 0 1 12 0v1a6 6 0 0 1 -6 6z"/><path d="m124.084 177.046a6 6 0 0 1 -6-6v-1a6 6 0 0 1 12 0v1a6 6 0 0 1 -6 6z"/><path d="m166.084 159.046a6 6 0 0 1 -6-6v-1a6 6 0 0 1 12 0v1a6 6 0 0 1 -6 6z"/></g></g><g transform="matrix(0.1171875 0 0 0.1171875 78 8.999999141693252)" id="L1_23"><path d="m261.97 42.6.02 180.98 35.42 182.74a183.63 183.63 0 0 0 148.13-180.15c0-101.38-82.19-183.57-183.57-183.57z" fill="#faffc5"/><path d="m414.07 226.17c0-7.37-.53-22.82-1.54-29.92-24.37 84.85-66.08 129.69-121.72 142.68v-26.22c50.98-14.58 75.21-47.72 82.16-115.39 0 0-33.2 83.92-85.65 83.92v-15.73s37.68-16.51 35.68-64.51c-14 26-23.54 30.68-45 40l-16.01-17.42-28.77 185.88-8.97 74.92h81.5l-8.45-77.61.11-.45-1.08-31.95a152.151 152.151 0 0 0 117.74-148.2z" fill="#d7db82"/><path d="m233.22 409.46-8.97 74.92h30l8.97-74.92z" fill="#6e9334"/><path d="m261.98 193.34c-3.97-2.11-8.66-4.98-13.79-6.53 0 0-4.84-62.95-87.16-30.67a89.126 89.126 0 0 0 -24.52-12.24c-12.7-4-28.6-5.43-43.36 3.44a51.121 51.121 0 0 0 -9.31 7.21c-10.37 10.05-16.23 23.84-17.21 38.25-2.2 32.38 16.93 121.52 83.1 174.78 24.73 19.91 51.6 33.78 80.41 41.12 1.02.26 2.05.52 3.08.76a196.166 196.166 0 0 0 28.78 4.62z" fill="#a0c15f"/><path d="m261.98 106.57v86.77c-3.97-2.11-8.66-4.98-13.79-6.53 0 0-4.84-62.95-87.16-30.67a89.126 89.126 0 0 0 -24.52-12.24c22.71-41.01 54.98-67.58 90.39-81.78 6.61 6.79 21.89 24.89 18.06 43.99a66.571 66.571 0 0 1 17.01.46z" fill="#ebf7a9"/><path d="m261.97 52.15.01 54.42h-.01a66.571 66.571 0 0 0 -17.01-.46c3.83-19.1-11.45-37.2-18.06-43.99a174.815 174.815 0 0 1 35.07-9.97z" fill="#b9dd8e"/><path d="m226.9 62.12c-35.41 14.2-67.68 40.77-90.39 81.78-12.7-4-28.6-5.43-43.36 3.44 0 0-3.13-20.25 16.23-31.55 0 0-6.45-56.49 56.5-58.1 0 0 6.45-43.58 64.56-22.6 0 0 15.2-8.77 31.53-7.31v24.37a174.815 174.815 0 0 0 -35.07 9.97z" fill="#a0c15f"/><path d="m260.14 408.7c-28.81-7.34-55.68-21.21-80.41-41.12-66.17-53.26-85.3-142.4-83.1-174.78.98-14.41 6.84-28.2 17.21-38.25a51.121 51.121 0 0 1 9.31-7.21 45.438 45.438 0 0 1 9.878-4.445c-12.054-3.167-26.438-3.632-39.878 4.445a51.121 51.121 0 0 0 -9.31 7.21c-10.37 10.05-16.23 23.84-17.21 38.25-2.2 32.38 16.93 121.52 83.1 174.78 24.73 19.91 51.6 33.78 80.41 41.12 1.02.26 2.05.52 3.08.76a196.166 196.166 0 0 0 28.78 4.62v-4.921c-.621-.153-1.244-.302-1.86-.459z" fill="#6e9334"/><path d="m139.38 115.79s-6.45-56.49 56.5-58.1c0 0 2.917-19.7 22.492-26.234-46.955-11.124-52.492 26.234-52.492 26.234-62.95 1.61-56.5 58.1-56.5 58.1-19.36 11.3-16.23 31.55-16.23 31.55 9.911-5.956 20.334-7.264 29.959-6.272a31.847 31.847 0 0 1 16.271-25.278z" fill="#728e3a"/><path d="m114.852 381.268a5.978 5.978 0 0 1 -4.225-1.741c-2.15-2.131-4.3-4.356-6.379-6.612a6 6 0 0 1 8.816-8.141c1.964 2.127 3.987 4.225 6.012 6.234a6 6 0 0 1 -4.224 10.26z" fill="#d4e1f4"/><path d="m185.809 427.775a5.994 5.994 0 0 1 -2.224-.429 225.03 225.03 0 0 1 -56.34-33.07 6 6 0 1 1 7.465-9.4 213.011 213.011 0 0 0 53.326 31.324 6 6 0 0 1 -2.227 11.574z" fill="#d4e1f4"/><path d="m233.22 409.46q1.938.462 3.889.882a5.952 5.952 0 0 0 -1.755-3.915 227.811 227.811 0 0 1 -27.476-32.779l27.893-74.768a6 6 0 0 0 -11.243-4.193l-24.768 66.392a248.769 248.769 0 0 1 -20.3-42.676q-3.636-9.942-6.6-20.5l44.345-73.713a6 6 0 1 0 -10.278-6.19l-38.17 63.449c-5.752-25.882-8.713-54.179-8.794-84.583a6 6 0 0 0 -6-5.984h-.016a6 6 0 0 0 -5.984 6.015 446.155 446.155 0 0 0 2.686 48.368l-36.2-33.422a6 6 0 0 0 -8.141 8.816l46.865 43.276a338.885 338.885 0 0 0 7.322 34.181 6.023 6.023 0 0 0 .257.954q3.2 11.721 7.187 22.751l-43.388-23.678a6 6 0 1 0 -5.748 10.533l56.2 30.672a253 253 0 0 0 20.853 37.987 5.957 5.957 0 0 0 .592.9 240.769 240.769 0 0 0 20.915 26.721c4.215 1.385 8.468 2.645 12.77 3.741 1.027.263 2.057.523 3.087.763z" fill="#c6e874"/></g><g transform="matrix(0.1171875 0 0 0.1171875 7.000001931190525 213.00000021457686)" id="L1_24"><path d="m222.56 49.68c-62.33 24.96-130 55.45-199.33 89.59a154.391 154.391 0 0 1 199.33-89.59z" fill="#6cb776"/><path d="m222.56 49.68a154.523 154.523 0 0 1 -199.33 89.59c69.33-34.14 137-64.63 199.33-89.59z" fill="#54aa67"/><path d="m187.72 59.57q4.889 0 9.8.318 12.65-5.242 25.04-10.208a154.391 154.391 0 0 0 -199.33 89.59q21.687-10.679 43.117-20.854a154.941 154.941 0 0 1 121.373-58.846z" fill="#56965c"/><path d="m23.237 139.281a6.008 6.008 0 0 1 2.744-8.043c68.619-33.647 132.976-62.949 193.347-87.13a65.1 65.1 0 0 1 61.591 6.59l-6.731 9.936a53.256 53.256 0 0 0 -50.4-5.385c-60.088 24.068-124.171 53.251-192.521 86.762a6 6 0 0 1 -8.03-2.73z" fill="#436f1e"/><path d="m269.98 20.97 3.14 69.05h43.14l3.14-69.05z" fill="#739937"/><path d="m273.12 90.02c-100.92 10.76-179.51 96.17-179.51 199.93 0 111.06 90.02 201.08 201.08 201.08v-402.16a202.237 202.237 0 0 0 -21.57 1.15z" fill="#e87b3f"/><path d="m316.26 90.02a202.237 202.237 0 0 0 -21.57-1.15v402.16c111.05 0 201.08-90.02 201.08-201.08 0-103.76-78.6-189.17-179.51-199.93z" fill="#ef8854"/><path d="m412.88 167.36a174.753 174.753 0 0 1 49.9 123.17c0 .6-.01 1.2-.02 1.8l-142.32-1.99h-.01c.01-.13.01-.26.01-.39a32.967 32.967 0 0 0 -8.63-22.28z" fill="#f2a64c"/><path d="m320.44 290.34 142.32 1.99a174.746 174.746 0 0 1 -50.81 120.99l-100.23-100.99a32.869 32.869 0 0 0 8.71-21.99z" fill="#f5c144"/><path d="m412.88 167.36-101.07 100.31a33.04 33.04 0 0 0 -17.12-9.99v-135.44a21.426 21.426 0 0 1 18.02-5.88 174.857 174.857 0 0 1 100.17 51z" fill="#f5c144"/><path d="m311.72 312.33 100.23 100.99a174.863 174.863 0 0 1 -100.55 50.25 21.357 21.357 0 0 1 -16.71-4.87v-136.47a32.99 32.99 0 0 0 17.03-9.9z" fill="#f2a64c"/><path d="m320.44 289.95c0 .13 0 .26-.01.39a33.119 33.119 0 0 1 -25.74 31.89v-64.55a33.115 33.115 0 0 1 25.75 32.27z" fill="#dd9445"/><path d="m123.61 289.95c0-100.852 74.249-184.359 171.08-198.842v-2.238a202.237 202.237 0 0 0 -21.57 1.15c-100.92 10.76-179.51 96.17-179.51 199.93 0 111.06 90.02 201.08 201.08 201.08v-2.23c-96.828-14.482-171.08-97.986-171.08-198.85z" fill="#c16538"/><g fill="#f4f8fc"><path d="m177.756 419.321a5.978 5.978 0 0 1 -4.146-1.663c-2.352-2.249-4.682-4.585-6.926-6.942a6 6 0 1 1 8.691-8.274c2.115 2.222 4.312 4.423 6.528 6.542a6 6 0 0 1 -4.147 10.337z"/><path d="m265.854 468.554a6.022 6.022 0 0 1 -1.517-.2 205.308 205.308 0 0 1 -73.973-36.3 6 6 0 0 1 7.326-9.5 193.359 193.359 0 0 0 69.672 34.195 6 6 0 0 1 -1.508 11.809z"/></g></g><g transform="matrix(0.1171875 0 0 0.1171875 110.99999985694885 140.99999934196467)" id="L1_25"><path d="m256 45.85c96.62 0 174.95 94.09 174.95 210.15s-78.33 210.15-174.95 210.15z" fill="#dd5e5e"/><g fill="#656299"><path d="m366.97 224.3a9.641 9.641 0 0 1 1.68 14.78 9.773 9.773 0 0 1 -7.85 3.71 13.518 13.518 0 0 1 -6.93-2.03 107.379 107.379 0 0 0 -10.64-4.87 1.6 1.6 0 0 1 -.31-2.78 107.776 107.776 0 0 0 9.27-7.13c4.16-4.05 10.23-5.3 14.78-1.68z"/><path d="m364.94 277.17a9.636 9.636 0 0 1 -6.04 13.59c-5.42 2.08-10.84-.93-13.59-6.05a111.067 111.067 0 0 0 -6.7-9.58 1.594 1.594 0 0 1 1.14-2.56 111.393 111.393 0 0 0 11.6-1.44 14.616 14.616 0 0 1 3.45-.43c4.43 0 8.49 2.16 10.14 6.47z"/><path d="m349.87 173.98a9.648 9.648 0 0 1 6.04 13.59c-1.66 4.32-5.72 6.47-10.15 6.47a14.517 14.517 0 0 1 -3.44-.42 108.747 108.747 0 0 0 -11.61-1.45 1.6 1.6 0 0 1 -1.14-2.56 107.712 107.712 0 0 0 6.71-9.58c2.74-5.12 8.16-8.13 13.58-6.05z"/><path d="m352.29 332.09a9.637 9.637 0 0 1 -9.66 11.31c-5.79.46-10.13-3.96-11.31-9.65a106.629 106.629 0 0 0 -3.71-11.09 1.609 1.609 0 0 1 1.82-2.14 109.562 109.562 0 0 0 11.54 1.92 13.18 13.18 0 0 1 7.67 2.76 9.7 9.7 0 0 1 3.65 6.89z"/><path d="m307.84 143.4a10.307 10.307 0 0 1 6 18.2 13.175 13.175 0 0 1 -7.66 2.76 108.722 108.722 0 0 0 -11.54 1.92 1.6 1.6 0 0 1 -1.82-2.14 107.96 107.96 0 0 0 3.7-11.09c1.19-5.69 5.53-10.11 11.32-9.65z"/><path d="m316.55 249.81a10.312 10.312 0 0 1 -6.97 17.75 13.069 13.069 0 0 1 -7.89-2.87 107.961 107.961 0 0 0 -10.03-6.03 1.609 1.609 0 0 1 0-2.81 107.68 107.68 0 0 0 10.02-6.03c4.59-3.56 10.76-4.11 14.87-.01z"/><path d="m306.22 201.48a9.64 9.64 0 0 1 6.52 13.37c-1.56 4.53-5.77 6.82-10.39 6.82a14.506 14.506 0 0 1 -2.98-.31 108.784 108.784 0 0 0 -11.65-1.03 1.6 1.6 0 0 1 -1.23-2.52 107.57 107.57 0 0 0 6.36-9.81c2.57-5.21 7.88-8.41 13.37-6.52z"/><path d="m312.74 296.18a9.64 9.64 0 0 1 -6.52 13.37c-5.49 1.89-10.8-1.31-13.37-6.52a106.21 106.21 0 0 0 -6.36-9.81 1.6 1.6 0 0 1 1.23-2.52 108.784 108.784 0 0 0 11.65-1.03 14.506 14.506 0 0 1 2.98-.31c4.62 0 8.83 2.29 10.39 6.82z"/><path d="m312.17 356.8a10.364 10.364 0 0 1 -.17 1.82 9.646 9.646 0 0 1 -12.25 8.45v-.01c-5.71-1.04-8.76-6.44-8.44-12.24a107.082 107.082 0 0 0 -.72-11.67 1.6 1.6 0 0 1 2.31-1.6 106.479 106.479 0 0 0 10.65 4.83c4.94 1.57 8.62 5.53 8.62 10.42z"/></g><path d="m453.94 256c0 131.31-88.62 237.76-197.94 237.76v-27.61c96.62 0 174.95-94.09 174.95-210.15s-78.33-210.15-174.95-210.15v-27.61c109.32 0 197.94 106.45 197.94 237.76z" fill="#4ca987"/><path d="m256 18.24c-72.25 0-133.88 110.86-133.88 240.6s61.63 234.92 133.88 234.92c-109.32 0-197.94-106.45-197.94-237.76s88.62-237.76 197.94-237.76z" fill="#5fcda4"/><path d="m256 493.76c-72.25 0-133.88-105.18-133.88-234.92s61.63-240.6 133.88-240.6c-24.78 0-62.61 108.02-62.61 237.76s37.83 237.76 62.61 237.76z" fill="#4ca987"/><path d="m193.39 256c0 129.74 37.83 237.76 62.61 237.76v-475.52c-24.78 0-62.61 108.02-62.61 237.76z" fill="#5fcda4"/><path d="m88.06 256c0-93.555 44.992-174.476 110.4-213.284 17.565-15.623 37.128-24.476 57.54-24.476-109.32 0-197.94 106.45-197.94 237.76s88.62 237.76 197.94 237.76c-21.945 0-42.9-9.718-61.461-26.866-63.277-39.675-106.479-119.22-106.479-210.894z" fill="#4c9b7b"/><path d="m139.746 495.049a5.975 5.975 0 0 1 -2.817-.706c-23.511-12.535-44.573-31.618-60.908-55.188a6 6 0 0 1 9.863-6.836c15.253 22.008 34.856 39.794 56.69 51.435a6 6 0 0 1 -2.828 11.295z" fill="#d4e1f4"/><path d="m68.768 421.666a6 6 0 0 1 -5.309-3.194c-1.3-2.464-2.584-5-3.8-7.551a6 6 0 0 1 10.822-5.186c1.151 2.4 2.359 4.8 3.589 7.123a6 6 0 0 1 -5.3 8.808z" fill="#d4e1f4"/></g><g transform="matrix(0.11324756829885453 -0.03866990178169616 0.03866990178169616 0.11324756829885453 188.10912765937903 -14.091882628392543)" id="L1_26"><path d="m489.865 253.134c0 53.898-2.293 106.074-28.307 147.64-1.734 2.771 1.495 5.844-.505 8.514-46.691 62.357-121.159 102.712-205.053 102.712-83.89 0-158.355-40.351-205.046-102.703-1.452-1.939 1.22-6.209-.082-8.161-27.402-41.076-26.626-82.952-26.626-137.839 0-141.385 90.369-221.792 231.754-221.792s233.865 70.244 233.865 211.629z" fill="#fc8978"/><path d="m501.216 275.082c-7.992-134.188-109.021-244.177-245.216-244.177s-228.56 111.66-236.552 245.848c2.591 43.499 14.427 79.36 31.849 113.155 3.218 6.243-4.869 13.318-.33 19.38 13.102 17.497 28.392 33.262 45.464 46.889 35.149-3.644 37.313-36.756 76.541-36.756 41.511 0 41.511 37.087 83.021 37.087 41.512 0 41.512-37.087 83.024-37.087 39.232 0 41.395 33.116 76.551 36.757 17.076-13.63 32.368-29.398 45.471-46.898 6.061-8.095 2.637-17.99 7.013-26.537 16.642-32.498 30.734-66.861 33.164-107.661z" fill="#f77661"/><path d="m512 256c0-141.385-114.615-256-256-256s-256 114.615-256 256c0 57.495 18.955 110.562 50.955 153.296 9.603 8.469 19.912 16.306 38.994 16.306 41.511 0 41.511-37.087 83.022-37.087s41.511 37.087 83.021 37.087c41.512 0 41.512-37.087 83.024-37.087 41.514 0 41.514 37.087 83.027 37.087 19.09 0 29.401-7.842 39.007-16.314 31.997-42.733 50.95-95.797 50.95-153.288z" fill="#f4eb59"/><path d="m112.766 409.296c-32-42.734-50.955-95.801-50.955-153.296 0-130.923 98.285-238.876 225.095-254.138-10.134-1.219-20.444-1.862-30.906-1.862-141.385 0-256 114.615-256 256 0 57.495 18.955 110.562 50.955 153.296 9.603 8.469 19.912 16.306 38.994 16.306 13.936 0 23.191-4.182 30.912-9.736-2.853-2.052-5.503-4.285-8.095-6.57z" fill="#fdcf5e"/><circle cx="256" cy="256" r="119" fill="#ffffff"/><g><path d="m180.068 267.041c-4.268 0-7.726-3.459-7.726-7.726v-12.362c0-4.267 3.459-7.726 7.726-7.726 4.268 0 7.726 3.459 7.726 7.726v12.362c.001 4.267-3.458 7.726-7.726 7.726z" fill="#5c576e"/><path d="m247.644 275.082c-9.061 0-17.678-3.924-23.641-10.766-2.804-3.217-2.468-8.098.748-10.901s8.097-2.469 10.901.748c3.027 3.474 7.397 5.466 11.991 5.466s8.964-1.992 11.991-5.466c2.803-3.217 7.682-3.552 10.901-.748 3.216 2.804 3.552 7.684.748 10.901-5.961 6.842-14.578 10.766-23.639 10.766z" fill="#5c576e"/><path d="m331.932 266.696c-4.268 0-7.726-3.459-7.726-7.726 0-3.639-2.961-6.599-6.6-6.599s-6.6 2.96-6.6 6.599c0 4.267-3.459 7.726-7.726 7.726-4.268 0-7.726-3.459-7.726-7.726 0-12.159 9.892-22.052 22.052-22.052s22.052 9.892 22.052 22.052c0 4.267-3.459 7.726-7.726 7.726z" fill="#5c576e"/></g><path d="m365.287 131.937-25.751-25.752c-6.035-6.035-6.035-15.818 0-21.853 6.034-6.035 15.819-6.035 21.853 0l25.751 25.752c6.035 6.035 6.035 15.818 0 21.853-6.034 6.034-15.818 6.035-21.853 0z" fill="#fc8978"/><path d="m71.485 302.307-25.752-25.751c-6.035-6.035-6.035-15.818 0-21.853 6.034-6.035 15.819-6.035 21.853 0l25.752 25.751c6.035 6.035 6.035 15.818 0 21.853-6.034 6.034-15.819 6.035-21.853 0z" fill="#fc8978"/><path d="m437.775 311.37 25.751-25.751c6.035-6.035 6.035-15.818 0-21.853-6.034-6.035-15.819-6.035-21.853 0l-25.751 25.751c-6.035 6.035-6.035 15.818 0 21.853s15.819 6.035 21.853 0z" fill="#fc8978"/><path d="m142.065 131.937 25.752-25.752c6.035-6.035 6.035-15.818 0-21.853-6.034-6.035-15.819-6.035-21.853 0l-25.752 25.752c-6.035 6.035-6.035 15.818 0 21.853 6.034 6.034 15.818 6.035 21.853 0z" fill="#fc8978"/></g><g transform="matrix(0.1171875 0 0 0.1171875 275.0000056076051 283)" id="L1_27"><path d="m215.322 485.333-105.335-242.192h292.025l-105.334 242.192c-7.043 16.193-23.019 26.667-40.678 26.667-17.658 0-33.635-10.474-40.678-26.667z" fill="#fc8978"/><path d="m277.133 485.333-105.335-242.192h-61.811l105.335 242.192c7.043 16.193 23.02 26.667 40.678 26.667 11.765 0 22.778-4.653 30.905-12.545-4.071-3.954-7.421-8.717-9.772-14.122z" fill="#f77661"/><path d="m418.961 185.702c-6.336-2.988-10.235-9.532-9.555-16.504.483-4.955.731-9.979.731-15.061 0-85.127-69.009-154.137-154.137-154.137s-154.137 69.01-154.137 154.137c0 5.08.25 10.102.734 15.055.681 6.974-3.218 13.52-9.557 16.509-12.809 6.04-21.674 19.063-21.674 34.164 0 20.858 16.908 37.766 37.766 37.766h293.735c20.858 0 37.766-16.908 37.766-37.766.001-15.1-8.864-28.123-21.672-34.163z" fill="#f1657c"/><path d="m286.905 3.101c-9.985-2.032-20.32-3.101-30.905-3.101-85.128 0-154.137 69.01-154.137 154.137 0 5.08.25 10.102.734 15.055.681 6.974-3.218 13.52-9.557 16.509-12.809 6.04-21.674 19.064-21.674 34.164 0 20.858 16.908 37.766 37.766 37.766h68.968c-4.764-12.125-36.098-77.205-4.334-149.501 33.07-75.265 101.528-100.901 113.139-105.029z" fill="#e9385a"/><g fill="#ffffff"><circle cx="217" cy="54" r="7"/><circle cx="325" cy="70" r="7"/><circle cx="248" cy="209" r="7"/><circle cx="356" cy="224" r="7"/><circle cx="140" cy="224" r="7"/></g><g><g fill="#ffffff"><ellipse cx="169px" cy="155px" rx="31px" ry="25px"/><ellipse cx="342px" cy="155px" rx="31px" ry="25px"/></g><path d="m188.425 138.215c-4.267 0-7.726-3.459-7.726-7.726v-12.362c0-4.267 3.459-7.726 7.726-7.726s7.726 3.459 7.726 7.726v12.362c0 4.267-3.459 7.726-7.726 7.726z" fill="#5c576e"/><path d="m256 146.256c-9.061 0-17.678-3.925-23.641-10.767-2.803-3.217-2.468-8.098.748-10.901 3.217-2.803 8.098-2.469 10.901.748 3.028 3.474 7.398 5.467 11.991 5.467s8.963-1.992 11.991-5.467c2.804-3.217 7.684-3.551 10.901-.748 3.217 2.804 3.552 7.684.749 10.901-5.962 6.842-14.579 10.767-23.64 10.767z" fill="#5c576e"/><path d="m340.287 137.87c-4.267 0-7.726-3.459-7.726-7.726 0-3.639-2.961-6.6-6.6-6.6s-6.6 2.961-6.6 6.6c0 4.267-3.459 7.726-7.726 7.726s-7.726-3.459-7.726-7.726c0-12.159 9.893-22.052 22.052-22.052s22.052 9.893 22.052 22.052c.001 4.267-3.459 7.726-7.726 7.726z" fill="#5c576e"/></g></g><g transform="matrix(0.07223845273256302 0 0 0.07223845273256302 163.5741987852457 75.50695610046387)" id="L1_28"><g><path d="m459.125 360.118-38.749 13.11-384.652 130.12c-16.751 5.664-32.732-10.317-27.061-27.061l1.025-3.033 129.125-381.516 13.11-38.749 49.497-7.071 160.732 104.135 104.044 160.568-2.737 19.141z" fill="#f9d11f"/><path d="m459.125 360.118-38.749 13.11-384.652 130.12c-16.751 5.664-32.732-10.317-27.061-27.061l1.025-3.033c9.171 3.967 19.651 4.518 29.444 1.174l424.328-144.666z" fill="#ffa402"/><path d="m459.125 360.118-38.749 13.11c-1.959-8.337-4.391-17.105-7.41-26.248-14.623-44.335-42.957-97.347-96.739-151.129-64.877-64.848-128.651-92.687-177.413-104.113l13.11-38.749 49.497-7.071 160.732 104.135 104.044 160.568-2.737 19.141z" fill="#fdeda5"/><path d="m459.125 360.118-38.749 13.11c-1.959-8.337-4.391-17.105-7.41-26.248l50.494-17.218z" fill="#fbdf63"/><g fill="#ed2061"><ellipse cx="190px" cy="198px" rx="39px" ry="39px"/><ellipse cx="164px" cy="347px" rx="39px" ry="39px"/><path d="m353.462 395.862-67.451 22.648c-6.802-6.802-10.628-15.45-11.469-24.338-1.068-11.377 2.751-23.129 11.462-31.841 15.521-15.507 40.68-15.507 56.194.007 2.128 2.128 3.974 4.441 5.515 6.887 5.092 8.047 7.008 17.516 5.749 26.637z"/></g><g fill="#68c044"><path d="m98.109 436.472c-10.325 10.322-29.912 7.476-29.912 7.476s-2.847-19.582 7.478-29.904 29.912-7.476 29.912-7.476 2.847 19.582-7.478 29.904z"/><path d="m278.301 290.674c7.698 12.404.459 30.821.459 30.821s-19.72-1.695-27.418-14.099-.459-30.821-.459-30.821 19.72 1.695 27.418 14.099z"/></g><path d="m487.558 377.294c-.29.078-.587.148-.891.212-7.7 1.619-15.295-.926-20.471-6.102-2.984-2.97-5.155-6.809-6.074-11.236-9.687-46.16-37.363-117.308-114.184-194.142-76.84-76.798-148.018-104.46-194.192-114.147-12.12-2.546-19.884-14.425-17.338-26.545.064-.29.134-.587.198-.877 2.92-11.604 14.524-18.95 26.347-16.461 52.135 10.939 132.052 41.726 216.693 126.324 84.634 84.633 115.428 164.528 126.367 216.649 2.474 11.808-4.844 23.411-16.455 26.325z" fill="#f79e60"/><path d="m487.558 377.294c.806-3.196.912-6.625.191-10.062-10.939-52.12-41.733-132.016-126.367-216.649-84.641-84.597-164.558-115.385-216.693-126.323-3.458-.728-6.88-.615-10.083.198 2.92-11.604 14.524-18.95 26.347-16.461 52.135 10.939 132.052 41.726 216.693 126.324 84.634 84.633 115.428 164.528 126.367 216.649 2.474 11.807-4.844 23.41-16.455 26.324z" fill="#d77d41"/><path d="m353.462 395.862-67.451 22.648c-6.802-6.802-10.628-15.45-11.469-24.338l73.171-24.946c5.092 8.046 7.008 17.515 5.749 26.636z" fill="#c71e54"/></g><g><path d="m511.352 349.424c-11.145-53.118-42.469-134.475-128.404-220.416-85.955-85.908-167.331-117.224-220.46-128.366-16.148-3.393-32.044 6.991-35.432 23.138-1.641 7.823-.137 15.815 4.234 22.507 2.909 4.453 6.861 7.968 11.482 10.309l-88.495 261.481c-1.328 3.924.776 8.181 4.7 9.509.797.27 1.608.397 2.405.397 3.127 0 6.045-1.972 7.103-5.098l75.208-222.221c59.649 15.388 115.88 49.165 167.23 100.484 19.415 19.418 36.576 39.898 51.005 60.872 1.455 2.114 3.8 3.25 6.186 3.25 1.465 0 2.946-.429 4.244-1.322 3.413-2.348 4.276-7.017 1.928-10.43-14.923-21.692-32.641-42.848-52.664-62.883-.01-.01-.018-.021-.028-.031-.003-.003-.006-.006-.01-.01l-.126-.126c-.02-.02-.038-.038-.052-.052-.007-.007-.015-.013-.023-.02-52.932-52.858-111.052-87.798-172.87-103.973l8.677-25.639c11.382 2.711 22.954 6.234 34.501 10.531 3.881 1.442 8.2-.531 9.645-4.414 1.444-3.882-.532-8.2-4.414-9.645-14.617-5.439-29.3-9.722-43.644-12.731-3.902-.817-7.252-3.107-9.431-6.443-2.18-3.337-2.93-7.322-2.111-11.222 1.689-8.052 9.619-13.228 17.672-11.538 51.137 10.725 129.59 40.995 212.935 124.293 83.324 83.331 113.602 161.764 124.328 212.889.819 3.9.069 7.884-2.11 11.221-2.18 3.336-5.529 5.625-9.432 6.444-4.952 1.038-10.05-.482-13.636-4.067-2.044-2.044-3.44-4.628-4.036-7.474-9.896-47.161-38.092-119.778-116.223-197.914-38.211-38.191-78.768-68.068-120.544-88.802-3.711-1.845-8.211-.326-10.052 3.384s-.326 8.211 3.384 10.052c40.316 20.009 79.549 48.936 116.607 85.973 71.808 71.812 99.882 138.351 110.616 183.546l-25.575 8.651c-7.079-26.948-17.929-53.62-32.335-79.398-2.021-3.616-6.59-4.911-10.206-2.888-3.616 2.021-4.909 6.59-2.888 10.206 13.969 24.993 24.438 50.831 31.187 76.897l-50.353 17.033c-1.113-10.617-5.798-20.564-13.576-28.34-18.416-18.413-48.383-18.413-66.799 0-8.922 8.92-13.835 20.78-13.835 33.395 0 8.779 2.386 17.189 6.841 24.501l-240.399 81.323c-5.104 1.726-10.424.483-14.232-3.326-3.806-3.807-5.048-9.122-3.323-14.221l41.67-123.126c1.328-3.924-.776-8.181-4.7-9.509-3.923-1.328-8.18.776-9.509 4.7l-41.669 123.125c-3.542 10.466-.889 21.822 6.923 29.636 5.527 5.528 12.824 8.474 20.327 8.474 3.108-.001 6.253-.507 9.321-1.544l417.361-141.183c1.405 2.728 3.216 5.241 5.414 7.437 5.693 5.691 13.289 8.783 21.14 8.783 2.052 0 4.123-.212 6.18-.643 7.823-1.641 14.539-6.23 18.911-12.92 4.37-6.691 5.873-14.685 4.231-22.506zm-222.902 60.514c-4.268-5.583-6.585-12.369-6.585-19.513 0-8.608 3.353-16.7 9.441-22.787 12.569-12.565 33.019-12.565 45.588 0 6.125 6.124 9.437 14.221 9.435 22.721z"/><path d="m156.81 165.256c-8.922 8.92-13.836 20.78-13.836 33.395s4.914 24.474 13.836 33.394c9.208 9.206 21.304 13.81 33.4 13.81s24.191-4.604 33.4-13.81c8.922-8.919 13.835-20.779 13.835-33.394s-4.913-24.474-13.835-33.395c-18.417-18.413-48.384-18.413-66.8 0zm56.194 56.18c-12.568 12.565-33.018 12.565-45.588 0-6.088-6.086-9.441-14.178-9.441-22.786s3.353-16.7 9.441-22.787c6.285-6.283 14.538-9.424 22.794-9.424 8.254 0 16.511 3.143 22.794 9.424 6.088 6.087 9.441 14.179 9.441 22.787s-3.353 16.7-9.441 22.786z"/><path d="m131.379 380.525c9.208 9.206 21.304 13.81 33.4 13.81s24.192-4.604 33.4-13.81c2.929-2.929 2.93-7.677.001-10.607-2.928-2.929-7.677-2.93-10.607-.001-12.569 12.566-33.02 12.564-45.588 0-6.088-6.087-9.441-14.179-9.441-22.787 0-8.607 3.353-16.699 9.441-22.786 12.568-12.564 33.02-12.564 45.588 0 5.132 5.131 8.312 11.638 9.197 18.818.507 4.111 4.247 7.043 8.362 6.527 4.111-.507 7.033-4.25 6.527-8.361-1.298-10.533-5.959-20.073-13.479-27.592-18.417-18.413-48.383-18.412-66.8 0-8.922 8.92-13.835 20.78-13.835 33.394-.001 12.615 4.912 24.475 13.834 33.395z"/><path d="m67.11 451.374c.415.061 3.185.439 7.175.439 1.703 0 3.628-.068 5.686-.262 9.857-.922 17.959-4.301 23.432-9.773s8.853-13.573 9.776-23.428c.644-6.879-.093-12.268-.179-12.86-.478-3.285-3.058-5.865-6.344-6.343-.591-.086-5.982-.824-12.861-.178-9.857.922-17.959 4.301-23.432 9.773s-8.854 13.573-9.776 23.428c-.644 6.879.092 12.268.178 12.86.479 3.286 3.06 5.867 6.345 6.344zm13.86-32.023c4.303-4.302 11.796-5.511 17.471-5.644-.133 5.679-1.343 13.165-5.643 17.464-4.303 4.302-11.796 5.511-17.472 5.644.133-5.679 1.344-13.165 5.644-17.464z"/><path d="m251.52 269.1c-3.311-.287-6.408 1.64-7.622 4.729-.219.557-2.165 5.636-3.107 12.48-1.35 9.806.093 18.464 4.173 25.041 4.08 6.574 11.198 11.713 20.586 14.858 6.552 2.195 11.967 2.708 12.563 2.76.217.019.432.027.646.027 3.059 0 5.842-1.869 6.977-4.757.219-.557 2.165-5.635 3.107-12.48 1.351-9.806-.093-18.464-4.173-25.041-4.08-6.574-11.199-11.712-20.586-14.858-6.553-2.196-11.968-2.707-12.564-2.759zm20.403 25.527c3.207 5.167 2.675 12.737 1.511 18.29-5.502-1.425-12.519-4.31-15.725-9.478-3.207-5.167-2.675-12.736-1.511-18.289 5.502 1.424 12.519 4.31 15.725 9.477z"/><path d="m127.299 251.185c-3.486 2.236-4.5 6.875-2.264 10.362l11.443 17.839c1.433 2.233 3.851 3.452 6.32 3.452 1.386 0 2.789-.384 4.043-1.189 3.486-2.236 4.5-6.875 2.264-10.362l-11.443-17.839c-2.238-3.485-6.876-4.5-10.363-2.263z"/><path d="m283.281 249.041 16.096 13.79c1.415 1.212 3.149 1.805 4.877 1.805 2.114 0 4.216-.889 5.699-2.62 2.695-3.146 2.33-7.881-.815-10.576l-16.096-13.79c-3.147-2.695-7.882-2.331-10.575.815-2.697 3.146-2.332 7.881.814 10.576z"/><path d="m229.687 374.276-2.018 19.335c-.43 4.12 2.562 7.808 6.681 8.239.265.027.527.041.788.041 3.792 0 7.048-2.867 7.45-6.723l2.018-19.335c.43-4.12-2.562-7.808-6.681-8.239-4.116-.43-7.808 2.561-8.238 6.682z"/></g></g><g transform="matrix(0.13947788777835687 0.03486947186904862 -0.03486947186904862 0.13947788777835687 6.458198553722884 17.480970986241417)" id="L1_29"><path d="M307.176,157.268c4.79,0,8.674-3.884,8.674-8.675c0-63.591-51.549-115.141-115.141-115.141H115.14   C51.549,33.453,0,85.002,0,148.593c0,4.791,3.884,8.675,8.674,8.675H307.176z" fill="#b3874f"/><g><path d="M315.851,272.108c0,5.661-4.632,10.292-10.292,10.292H10.293C4.632,282.4,0,277.768,0,272.108    v-30.879c0-5.661,4.632-10.293,10.293-10.293h295.265c5.661,0,10.292,4.632,10.292,10.293v30.879H315.851z" fill="#b3874f"/><path d="M305.558,230.936H10.293C4.632,230.936,0,235.568,0,241.229v3.031h315.851v-3.031    C315.851,235.568,311.219,230.936,305.558,230.936z" fill="#997443"/></g><path d="M315.851,206.491c0-7.784-6.369-14.153-14.152-14.153H14.153C6.369,192.338,0,198.707,0,206.491   v10.292c0,7.784,6.369,14.153,14.153,14.153h287.545c7.784,0,14.152-6.369,14.152-14.153v-10.292H315.851z" fill="#5a3c3d"/><path d="M307.284,175.204H8.567c-4.731,0-8.567,3.836-8.567,8.567s3.836,8.567,8.567,8.567h54.275v17.855   c0,4.165,3.376,7.542,7.541,7.542s7.542-3.377,7.542-7.542v-17.855h160.438v8.561c0,6.663,5.401,12.063,12.063,12.063   s12.063-5.401,12.063-12.063v-8.561h44.793c4.731,0,8.567-3.836,8.567-8.567C315.851,179.04,312.015,175.204,307.284,175.204z" fill="#fedd3d"/><path d="M51.514,117.6c0,5.21,4.224,9.435,9.436,9.435c5.21,0,9.435-4.224,9.435-9.435   s-4.224-18.507-9.435-18.507C55.738,99.093,51.514,112.389,51.514,117.6z" fill="#f2d383"/><path d="M101.745,73.858c0,5.211,4.224,9.435,9.436,9.435c5.21,0,9.435-4.224,9.435-9.435   s-4.224-18.507-9.435-18.507C105.969,55.351,101.745,68.647,101.745,73.858z" fill="#f2d383"/><path d="M257.233,117.6c0,5.21-4.224,9.435-9.435,9.435s-9.435-4.224-9.435-9.435s4.224-18.507,9.435-18.507   S257.233,112.389,257.233,117.6z" fill="#f2d383"/><path d="M207.001,73.858c0,5.211-4.224,9.435-9.435,9.435c-5.21,0-9.435-4.224-9.435-9.435   s4.224-18.507,9.435-18.507C202.777,55.351,207.001,68.647,207.001,73.858z" fill="#f2d383"/><path d="M144.938,117.6c0,5.21,4.224,9.435,9.435,9.435s9.435-4.224,9.435-9.435s-4.224-18.507-9.435-18.507   S144.938,112.389,144.938,117.6z" fill="#f2d383"/><rect x="8px" y="157px" width="298px" height="17px" fill="#e94f3d"/><g><path d="M17.134,175.204c0,15.159,12.289,27.448,27.448,27.448s27.448-12.289,27.448-27.448H17.134z" fill="#00783e"/><path d="M72.03,175.204c0,15.159,12.289,27.448,27.448,27.448s27.447-12.289,27.447-27.448H72.03z" fill="#00783e"/><path d="M126.925,175.204c0,15.159,12.289,27.448,27.448,27.448s27.448-12.289,27.448-27.448H126.925z" fill="#00783e"/><path d="M181.82,175.204c0,15.159,12.289,27.448,27.448,27.448s27.448-12.289,27.448-27.448H181.82z" fill="#00783e"/><path d="M236.716,175.204c0,15.159,12.289,27.448,27.448,27.448s27.448-12.289,27.448-27.448H236.716z" fill="#00783e"/></g></g></defs><g fi:class="KUsePattern"><pattern id="pattern_L1_19" width="350" height="350" patternUnits="userSpaceOnUse"><use xlink:href="#L1_19" x="-350" y="-350"/><use xlink:href="#L1_19" x="0" y="-350"/><use xlink:href="#L1_19" x="350" y="-350"/><use xlink:href="#L1_19" x="-350" y="0"/><use xlink:href="#L1_19" x="0" y="0"/><use xlink:href="#L1_19" x="350" y="0"/><use xlink:href="#L1_19" x="-350" y="350"/><use xlink:href="#L1_19" x="0" y="350"/><use xlink:href="#L1_19" x="350" y="350"/></pattern><rect x="0" y="0" width="100%" height="100%" fill="url(#pattern_L1_19)"/></g><g fi:class="KUsePattern"><pattern id="pattern_L1_20" width="350" height="350" patternUnits="userSpaceOnUse"><use xlink:href="#L1_20" x="-350" y="-350"/><use xlink:href="#L1_20" x="0" y="-350"/><use xlink:href="#L1_20" x="350" y="-350"/><use xlink:href="#L1_20" x="-350" y="0"/><use xlink:href="#L1_20" x="0" y="0"/><use xlink:href="#L1_20" x="350" y="0"/><use xlink:href="#L1_20" x="-350" y="350"/><use xlink:href="#L1_20" x="0" y="350"/><use xlink:href="#L1_20" x="350" y="350"/></pattern><rect x="0" y="0" width="100%" height="100%" fill="url(#pattern_L1_20)"/></g><g fi:class="KUsePattern"><pattern id="pattern_L1_21" width="350" height="350" patternUnits="userSpaceOnUse"><use xlink:href="#L1_21" x="-350" y="-350"/><use xlink:href="#L1_21" x="0" y="-350"/><use xlink:href="#L1_21" x="350" y="-350"/><use xlink:href="#L1_21" x="-350" y="0"/><use xlink:href="#L1_21" x="0" y="0"/><use xlink:href="#L1_21" x="350" y="0"/><use xlink:href="#L1_21" x="-350" y="350"/><use xlink:href="#L1_21" x="0" y="350"/><use xlink:href="#L1_21" x="350" y="350"/></pattern><rect x="0" y="0" width="100%" height="100%" fill="url(#pattern_L1_21)"/></g><g fi:class="KUsePattern"><pattern id="pattern_L1_22" width="350" height="350" patternUnits="userSpaceOnUse"><use xlink:href="#L1_22" x="-350" y="-350"/><use xlink:href="#L1_22" x="0" y="-350"/><use xlink:href="#L1_22" x="350" y="-350"/><use xlink:href="#L1_22" x="-350" y="0"/><use xlink:href="#L1_22" x="0" y="0"/><use xlink:href="#L1_22" x="350" y="0"/><use xlink:href="#L1_22" x="-350" y="350"/><use xlink:href="#L1_22" x="0" y="350"/><use xlink:href="#L1_22" x="350" y="350"/></pattern><rect x="0" y="0" width="100%" height="100%" fill="url(#pattern_L1_22)"/></g><g fi:class="KUsePattern"><pattern id="pattern_L1_23" width="350" height="350" patternUnits="userSpaceOnUse"><use xlink:href="#L1_23" x="-350" y="-350"/><use xlink:href="#L1_23" x="0" y="-350"/><use xlink:href="#L1_23" x="350" y="-350"/><use xlink:href="#L1_23" x="-350" y="0"/><use xlink:href="#L1_23" x="0" y="0"/><use xlink:href="#L1_23" x="350" y="0"/><use xlink:href="#L1_23" x="-350" y="350"/><use xlink:href="#L1_23" x="0" y="350"/><use xlink:href="#L1_23" x="350" y="350"/></pattern><rect x="0" y="0" width="100%" height="100%" fill="url(#pattern_L1_23)"/></g><g fi:class="KUsePattern"><pattern id="pattern_L1_24" width="350" height="350" patternUnits="userSpaceOnUse"><use xlink:href="#L1_24" x="-350" y="-350"/><use xlink:href="#L1_24" x="0" y="-350"/><use xlink:href="#L1_24" x="350" y="-350"/><use xlink:href="#L1_24" x="-350" y="0"/><use xlink:href="#L1_24" x="0" y="0"/><use xlink:href="#L1_24" x="350" y="0"/><use xlink:href="#L1_24" x="-350" y="350"/><use xlink:href="#L1_24" x="0" y="350"/><use xlink:href="#L1_24" x="350" y="350"/></pattern><rect x="0" y="0" width="100%" height="100%" fill="url(#pattern_L1_24)"/></g><g fi:class="KUsePattern"><pattern id="pattern_L1_25" width="350" height="350" patternUnits="userSpaceOnUse"><use xlink:href="#L1_25" x="-350" y="-350"/><use xlink:href="#L1_25" x="0" y="-350"/><use xlink:href="#L1_25" x="350" y="-350"/><use xlink:href="#L1_25" x="-350" y="0"/><use xlink:href="#L1_25" x="0" y="0"/><use xlink:href="#L1_25" x="350" y="0"/><use xlink:href="#L1_25" x="-350" y="350"/><use xlink:href="#L1_25" x="0" y="350"/><use xlink:href="#L1_25" x="350" y="350"/></pattern><rect x="0" y="0" width="100%" height="100%" fill="url(#pattern_L1_25)"/></g><g fi:class="KUsePattern"><pattern id="pattern_L1_26" width="350" height="350" patternUnits="userSpaceOnUse"><use xlink:href="#L1_26" x="-350" y="-350"/><use xlink:href="#L1_26" x="0" y="-350"/><use xlink:href="#L1_26" x="350" y="-350"/><use xlink:href="#L1_26" x="-350" y="0"/><use xlink:href="#L1_26" x="0" y="0"/><use xlink:href="#L1_26" x="350" y="0"/><use xlink:href="#L1_26" x="-350" y="350"/><use xlink:href="#L1_26" x="0" y="350"/><use xlink:href="#L1_26" x="350" y="350"/></pattern><rect x="0" y="0" width="100%" height="100%" fill="url(#pattern_L1_26)"/></g><g fi:class="KUsePattern"><pattern id="pattern_L1_27" width="350" height="350" patternUnits="userSpaceOnUse"><use xlink:href="#L1_27" x="-350" y="-350"/><use xlink:href="#L1_27" x="0" y="-350"/><use xlink:href="#L1_27" x="350" y="-350"/><use xlink:href="#L1_27" x="-350" y="0"/><use xlink:href="#L1_27" x="0" y="0"/><use xlink:href="#L1_27" x="350" y="0"/><use xlink:href="#L1_27" x="-350" y="350"/><use xlink:href="#L1_27" x="0" y="350"/><use xlink:href="#L1_27" x="350" y="350"/></pattern><rect x="0" y="0" width="100%" height="100%" fill="url(#pattern_L1_27)"/></g><g fi:class="KUsePattern"><pattern id="pattern_L1_28" width="350" height="350" patternUnits="userSpaceOnUse"><use xlink:href="#L1_28" x="-350" y="-350"/><use xlink:href="#L1_28" x="0" y="-350"/><use xlink:href="#L1_28" x="350" y="-350"/><use xlink:href="#L1_28" x="-350" y="0"/><use xlink:href="#L1_28" x="0" y="0"/><use xlink:href="#L1_28" x="350" y="0"/><use xlink:href="#L1_28" x="-350" y="350"/><use xlink:href="#L1_28" x="0" y="350"/><use xlink:href="#L1_28" x="350" y="350"/></pattern><rect x="0" y="0" width="100%" height="100%" fill="url(#pattern_L1_28)"/></g><g fi:class="KUsePattern"><pattern id="pattern_L1_29" width="350" height="350" patternUnits="userSpaceOnUse"><use xlink:href="#L1_29" x="-350" y="-350"/><use xlink:href="#L1_29" x="0" y="-350"/><use xlink:href="#L1_29" x="350" y="-350"/><use xlink:href="#L1_29" x="-350" y="0"/><use xlink:href="#L1_29" x="0" y="0"/><use xlink:href="#L1_29" x="350" y="0"/><use xlink:href="#L1_29" x="-350" y="350"/><use xlink:href="#L1_29" x="0" y="350"/><use xlink:href="#L1_29" x="350" y="350"/></pattern><rect x="0" y="0" width="100%" height="100%" fill="url(#pattern_L1_29)"/></g></svg>